<svg width="96" height="96" xmlns="http://www.w3.org/2000/svg" xmlns:xlink="http://www.w3.org/1999/xlink" xml:space="preserve" overflow="hidden"><g transform="translate(-574 -547)"><path d="M605 578 594 578 594 571 605 571 605 578ZM620 571 620 578 609 578 609 571 620 571ZM635 571 635 578 624 578 624 571 635 571ZM650 571 650 578 639 578 639 571 650 571ZM650 589 639 589 639 582 650 582 650 589ZM650 597.5 639 598.5 639 593 650 593 650 597.5ZM605 593 605 601.5 594 602.5 594 593 605 593ZM605 589 594 589 594 582 605 582 605 589ZM620 589 609 589 609 582 620 582 620 589ZM624 589 624 582 635 582 635 589 624 589ZM620 600.2 609 601.2 609 593 620 593 620 600.2ZM624 593 635 593 635 598.8 624 599.8 624 593ZM656 603 656 565 594 565 594 564C594 559 590 555 585 555 583.3 555 582 556.3 582 558 582 559.7 583.3 561 585 561 586.7 561 588 562.3 588 564L588 614C588 619 592 623 597 623L600 623 644 623 653 623C654.7 623 656 621.7 656 620 656 618.3 654.7 617 653 617L597 617C595.3 617 594 615.7 594 614L594 608.5 656 603Z"/><path d="M606 629C606 632.314 603.314 635 600 635 596.686 635 594 632.314 594 629 594 625.686 596.686 623 600 623 603.314 623 606 625.686 606 629Z"/><path d="M650 629C650 632.314 647.314 635 644 635 640.686 635 638 632.314 638 629 638 625.686 640.686 623 644 623 647.314 623 650 625.686 650 629Z"/></g></svg>